<?xml version="1.0" standalone="no"?>
<!DOCTYPE svg PUBLIC "-//W3C//DTD SVG 20010904//EN"
 "http://www.w3.org/TR/2001/REC-SVG-20010904/DTD/svg10.dtd">
<svg version="1.0" xmlns="http://www.w3.org/2000/svg"
 width="700.000000pt" height="700.000000pt" viewBox="0 0 700.000000 700.000000"
 preserveAspectRatio="xMidYMid meet">
<metadata>
Created by potrace 1.11, written by Peter Selinger 2001-2013
</metadata>
<g transform="translate(0.000000,700.000000) scale(0.100000,-0.100000)"
fill="#000000" stroke="none">
<path d="M2365 6696 c-16 -7 -39 -23 -50 -36 -20 -22 -20 -36 -20 -782 l0
-760 33 -29 32 -29 289 0 289 0 31 26 31 26 0 -117 c0 -115 0 -117 29 -146 28
-28 34 -29 115 -29 l86 0 0 -1290 0 -1290 -75 0 c-81 0 -127 -16 -145 -49 -5
-11 -10 -69 -10 -130 0 -61 -2 -111 -4 -111 -3 0 -17 11 -32 25 l-27 25 -286
0 c-314 0 -315 0 -346 -60 -13 -25 -15 -131 -15 -760 0 -646 2 -736 16 -765
32 -69 -35 -65 1164 -65 1200 0 1132 -4 1164 65 15 30 16 114 14 780 l-3 747
-33 29 -32 29 -289 0 -288 0 -27 -25 -26 -24 0 87 c0 168 -27 202 -162 202
l-78 0 0 1290 0 1290 84 0 c131 0 156 32 156 202 l0 87 25 -24 24 -25 290 0
291 0 32 29 33 29 3 747 c2 650 0 750 -13 778 -31 66 49 62 -1150 64 -890 2
-1095 0 -1120 -11z m1575 -700 l0 -54 -29 29 -29 29 -412 0 -412 0 -29 -29
-29 -29 0 54 0 54 470 0 470 0 0 -54z m-470 -4936 l412 0 29 30 30 29 -3 -57
-3 -57 -465 0 -465 0 -3 57 -3 57 30 -29 29 -30 412 0z"/>
<path d="M6003 1968 c-30 -33 -43 -62 -154 -358 -33 -91 -104 -277 -155 -414
-52 -137 -94 -257 -94 -267 0 -21 -2 -21 170 -50 69 -11 129 -25 134 -29 4 -5
-20 -79 -54 -167 -35 -87 -98 -248 -141 -358 -44 -110 -79 -214 -79 -231 0
-44 34 -84 71 -84 22 0 35 9 57 39 40 56 406 971 393 984 -6 6 -74 21 -153 34
-78 13 -146 27 -151 32 -4 4 20 79 54 167 33 87 78 204 99 259 21 55 61 160
89 232 28 73 51 143 51 155 0 13 -9 38 -20 56 -16 26 -26 32 -53 32 -24 0 -41
-8 -64 -32z"/>
<path d="M5405 1610 c-52 -20 -74 -64 -171 -336 -224 -633 -248 -704 -229
-704 3 0 62 -11 132 -24 71 -13 170 -32 222 -41 l94 -17 23 29 c24 28 24 30
21 256 -2 227 -2 229 -26 248 -36 29 -64 24 -105 -21 l-36 -40 0 -115 c0 -63
-3 -115 -7 -115 -19 0 -83 22 -87 29 -3 4 55 175 129 380 74 204 135 376 135
382 0 6 -7 26 -15 44 -18 37 -51 56 -80 45z"/>
<path d="M6312 1493 c-20 -24 -33 -53 -36 -78 -3 -22 -8 -270 -12 -552 -6
-507 -6 -511 14 -522 12 -6 39 -11 61 -11 35 0 43 4 57 32 14 27 18 30 28 16
6 -9 25 -36 43 -61 39 -57 96 -87 160 -87 118 1 234 104 330 293 28 57 34 78
30 110 -7 54 -32 79 -75 75 -31 -3 -38 -10 -76 -77 -68 -119 -159 -194 -214
-177 -39 13 -57 65 -56 161 1 116 13 156 138 450 57 132 108 254 115 272 24
61 -13 133 -69 133 -46 0 -77 -53 -190 -322 -57 -137 -108 -248 -113 -248 -6
0 -7 102 -2 279 6 242 5 282 -9 308 -29 56 -80 59 -124 6z"/>
</g>
</svg>
